<svg width="203" height="119" viewBox="0 0 203 119" fill="none" xmlns="http://www.w3.org/2000/svg">
<rect width="202" height="119" transform="translate(0.5)" fill="white"/>
<path d="M175.05 52.3238H174.59V54.55V55.5214H173.879V54.55V52.3238H173.503H172.5V52H176.011V52.3238H175.05Z" fill="#03110E"/>
<path d="M180.484 55.5214V54.5095V52.8905L179.313 55.481H179.063L177.892 52.8905V54.3476V55.5214H177.558V54.3476V52.8905V52H178.227L179.397 54.5905L180.568 52H181.236V52.8905V54.5095V55.481H180.484V55.5214Z" fill="#03110E"/>
<path d="M43.6795 54.2681C44.2996 54.8472 44.6335 55.7882 44.6335 57.1877C44.6335 58.0563 44.4427 58.8043 44.0611 59.3592C43.7033 59.9383 43.2501 60.252 42.7254 60.4209C42.1529 60.6139 41.4135 60.6139 40.4356 60.6139H39.5292V53.3753C39.7916 53.3512 40.1255 53.3512 40.531 53.3512C42.0575 53.3512 43.0832 53.6649 43.6795 54.2681ZM47.2334 59.6247C47.6628 58.8525 47.8774 57.9839 47.8774 56.9946C47.8774 55.8606 47.5674 54.8954 46.8995 54.1233C46.2555 53.3753 45.4207 52.7962 44.4189 52.5067C43.4409 52.2172 42.0575 52.0241 40.2686 52.0241H36.5V56.8981V65.3432V70H39.5292V61.8204H41.0796C43.0116 61.8204 44.4666 61.748 45.3014 61.3378C46.1124 60.9276 46.7802 60.3968 47.2334 59.6247Z" fill="#03110E"/>
<path d="M70.6203 70V68.7936H61.151V52.0241H58.098V56.681V65.2225V70H70.6203Z" fill="#03110E"/>
<path d="M88.6505 62.4477H83.6177L86.0983 56.2225L88.6505 62.4477ZM95.019 70L87.4817 52.0241H86.5992L79.2528 70H80.7793L83.2122 63.6059H89.1037L90.344 66.622C90.344 66.622 90.7256 67.5389 91.7036 70H95.019Z" fill="#03110E"/>
<path d="M118.966 70V55.5469V52.0241H117.654V55.3539V64.5952L108.352 52.0241H105.299V56.4638V65.4638V69.5657H106.468V65.4638V54.5818L118.06 70H118.966Z" fill="#03110E"/>
<path d="M140.282 53.2064V52H129.667V56.6086V62.9786V64.0161V65.2225V69.9759H140.234V68.7936H134.676H132.744V65.2225V64.0161V63.3646V62.9786V61.1448H134.247H137.682V59.9625H134.176H132.744V57.1394V56.6327V53.2064H134.724H140.282Z" fill="#03110E"/>
<path d="M166.5 53.2064L166.476 52.0241H149.207L149.16 53.2064H154.049H156.267V65.1019V70H159.321V65.1019V53.2064H161.849H166.5Z" fill="#03110E"/>
<path d="M69.3555 83.9476C68.8121 84.5143 68.1433 84.7976 67.4326 84.7976C66.7638 84.7976 66.1786 84.5547 65.6352 84.069C65.1336 83.5833 64.8828 83.0166 64.8828 82.3285C64.8828 81.6809 65.1336 81.0738 65.6352 80.5881C66.1368 80.1024 66.722 79.8595 67.4326 79.8595C68.2269 79.8595 68.8539 80.1428 69.2719 80.7095L68.6031 81.2357C68.2687 80.8309 67.8507 80.6285 67.4326 80.6285C67.0146 80.6285 66.5966 80.7905 66.2622 81.1143C65.9278 81.4381 65.7188 81.8428 65.7188 82.2881C65.7188 82.7738 65.886 83.1786 66.2204 83.5024C66.5548 83.8262 66.9728 83.9881 67.4326 83.9881C67.6417 83.9881 67.8925 83.9476 68.1015 83.8262C68.3105 83.7047 68.5195 83.5833 68.6867 83.3809L69.3555 83.9476Z" fill="#03110E"/>
<path d="M75.4165 83.6643L74.9567 84.7167H74.0789L76.4197 79.7786L78.7605 84.7167H77.8827L77.4229 83.6643H75.4165ZM76.4197 81.4381L75.7509 82.9357H77.0885L76.4197 81.4381Z" fill="#03110E"/>
<path d="M85.5742 79.9404C86.0758 79.9404 86.452 80.0619 86.7864 80.3047C87.079 80.5476 87.2462 80.9119 87.2462 81.3166C87.2462 81.6404 87.1626 81.9238 86.9536 82.1666C86.7446 82.4095 86.5356 82.5714 86.2848 82.6523L87.3716 84.7166H86.452L85.4069 82.7333H84.4873V84.7166H83.6931V79.9404H85.5742ZM84.4455 82.0047H85.616C85.8668 82.0047 86.0758 81.9642 86.243 81.8428C86.3684 81.7214 86.452 81.5595 86.452 81.3571C86.452 81.1547 86.3684 80.9928 86.243 80.8714C86.0758 80.75 85.9086 80.7095 85.616 80.7095H84.4873L84.4455 82.0047Z" fill="#03110E"/>
<path d="M93.4326 83.6643L92.9728 84.7167H92.095L94.4358 79.7786L96.7766 84.7167H95.8988L95.439 83.6643H93.4326ZM94.4358 81.4381L93.767 82.9357H95.1046L94.4358 81.4381Z" fill="#03110E"/>
<path d="M100.831 79.9404H101.751L103.172 83.138L104.593 79.9404H105.513L103.172 84.838L100.831 79.9404Z" fill="#03110E"/>
<path d="M110.989 83.6643L110.529 84.7167H109.651L111.992 79.7786L114.333 84.7167H113.413L112.954 83.6643H110.989ZM111.992 81.4381L111.323 82.9357H112.661L111.992 81.4381Z" fill="#03110E"/>
<path d="M122.609 79.9405H123.446V84.8381L120.06 81.6V84.6762H119.224V79.7786L122.609 83.0167V79.9405Z" fill="#03110E"/>
<path d="M130.008 82.531C129.256 82.2477 128.838 81.8024 128.838 81.1143C128.838 80.75 128.963 80.4262 129.256 80.1834C129.548 79.9405 129.883 79.8191 130.301 79.8191C130.802 79.8191 131.388 79.981 132.015 80.3453L131.638 81.0334C131.137 80.75 130.719 80.6286 130.426 80.6286C130.175 80.6286 129.966 80.6691 129.883 80.7905C129.757 80.9119 129.716 81.0334 129.716 81.1548C129.716 81.3977 129.841 81.5596 130.134 81.681L131.095 82.0453C131.806 82.3286 132.182 82.7739 132.182 83.381C132.182 83.8262 132.015 84.15 131.722 84.3929C131.388 84.6358 131.011 84.7572 130.51 84.7572C130.259 84.7572 129.966 84.6762 129.59 84.5953C129.214 84.4739 128.88 84.3119 128.545 84.1096L128.921 83.4215C129.548 83.7858 130.092 83.9881 130.51 83.9881C130.761 83.9881 130.97 83.9072 131.095 83.8262C131.22 83.7048 131.304 83.5834 131.304 83.381C131.304 83.0977 131.095 82.8953 130.719 82.7739L130.008 82.531Z" fill="#03110E"/>
</svg>
